<?xml version="1.0" encoding="UTF-8" standalone="no"?>
<!-- Created with Inkscape (http://www.inkscape.org/) -->

<svg
   xmlns:dc="http://purl.org/dc/elements/1.1/"
   xmlns:cc="http://creativecommons.org/ns#"
   xmlns:rdf="http://www.w3.org/1999/02/22-rdf-syntax-ns#"
   xmlns:svg="http://www.w3.org/2000/svg"
   xmlns="http://www.w3.org/2000/svg"
   xmlns:sodipodi="http://sodipodi.sourceforge.net/DTD/sodipodi-0.dtd"
   xmlns:inkscape="http://www.inkscape.org/namespaces/inkscape"
   width="32"
   height="32"
   viewBox="0 0 32 32.000001"
   id="svg2"
   version="1.1"
   inkscape:version="0.92.3 (2405546, 2018-03-11)"
   sodipodi:docname="sourcefile.svg"
   inkscape:export-filename="C:\Users\Peter\local_workspace\Tome-eclipse-plugin\icons\sourcefile.png"
   inkscape:export-xdpi="48"
   inkscape:export-ydpi="48">
  <defs
     id="defs4" />
  <sodipodi:namedview
     id="base"
     pagecolor="#ffffff"
     bordercolor="#666666"
     borderopacity="1.0"
     inkscape:pageopacity="0.0"
     inkscape:pageshadow="2"
     inkscape:zoom="16"
     inkscape:cx="3.9489263"
     inkscape:cy="8.4673853"
     inkscape:document-units="px"
     inkscape:current-layer="g845"
     showgrid="false"
     units="px"
     inkscape:showpageshadow="false"
     showborder="true"
     inkscape:snap-bbox="false"
     inkscape:object-nodes="true"
     showguides="false"
     inkscape:window-width="2691"
     inkscape:window-height="1817"
     inkscape:window-x="590"
     inkscape:window-y="-11"
     inkscape:window-maximized="1">
    <inkscape:grid
       type="xygrid"
       id="grid4684" />
  </sodipodi:namedview>
  <metadata
     id="metadata7">
    <rdf:RDF>
      <cc:Work
         rdf:about="">
        <dc:format>image/svg+xml</dc:format>
        <dc:type
           rdf:resource="http://purl.org/dc/dcmitype/StillImage" />
        <dc:title />
      </cc:Work>
    </rdf:RDF>
  </metadata>
  <g
     inkscape:label="book T"
     inkscape:groupmode="layer"
     id="layer1"
     transform="translate(0,-1020.3622)"
     style="display:none;opacity:1">
    <path
       style="fill:#9e702d;fill-opacity:1;fill-rule:evenodd;stroke:none;stroke-width:1px;stroke-linecap:butt;stroke-linejoin:miter;stroke-opacity:1"
       d="m 27,1021.3622 v 30 H 5 v -30 h 22"
       id="path4523"
       inkscape:connector-curvature="0"
       sodipodi:nodetypes="ccccc" />
    <path
       style="fill:#7d511c;fill-opacity:1;fill-rule:evenodd;stroke:none;stroke-width:1px;stroke-linecap:butt;stroke-linejoin:miter;stroke-opacity:1"
       d="M 27,1034.3622 H 4.9999999 v 4 H 27 v -4"
       id="path4566"
       inkscape:connector-curvature="0" />
    <path
       style="display:inline;fill:#ffffff;fill-opacity:1;fill-rule:evenodd;stroke:none;stroke-width:1px;stroke-linecap:butt;stroke-linejoin:miter;stroke-opacity:1"
       d="m 8,1031.3622 v -5 h 16 v 5 l -2,-2 h -4 v 15 l 2,2 h -8 l 2,-2 v -15 h -4 l -2,2"
       id="path4690"
       inkscape:connector-curvature="0"
       sodipodi:nodetypes="ccccccccccccc" />
  </g>
  <g
     style="display:none;opacity:1"
     transform="translate(0,-1020.3622)"
     id="g1517"
     inkscape:groupmode="layer"
     inkscape:label="book I">
    <path
       sodipodi:nodetypes="ccccc"
       inkscape:connector-curvature="0"
       id="path1513"
       d="m 27,1021.3622 v 30 H 5 v -30 h 22"
       style="fill:#bc0003;fill-opacity:1;fill-rule:evenodd;stroke:none;stroke-width:1px;stroke-linecap:butt;stroke-linejoin:miter;stroke-opacity:1" />
    <path
       inkscape:connector-curvature="0"
       id="path1515"
       d="M 27,1034.3622 H 4.9999999 v 4 H 27 v -4"
       style="fill:#7d1c23;fill-opacity:1;fill-rule:evenodd;stroke:none;stroke-width:1px;stroke-linecap:butt;stroke-linejoin:miter;stroke-opacity:1" />
    <path
       inkscape:connector-curvature="0"
       id="path1525"
       d="m 12,26 h 8 L 18,24 V 8 l 2,-2 h -8 l 2,2 v 16 l -2,2"
       style="display:inline;fill:#ffffff;fill-opacity:1;fill-rule:evenodd;stroke:none;stroke-width:1px;stroke-linecap:butt;stroke-linejoin:miter;stroke-opacity:1"
       transform="translate(0,1020.3622)" />
  </g>
  <g
     inkscape:label="book C"
     inkscape:groupmode="layer"
     id="g1543"
     style="display:none;opacity:1"
     transform="translate(0,-1020.3622)">
    <path
       style="fill:#1f9332;fill-opacity:1;fill-rule:evenodd;stroke:none;stroke-width:1px;stroke-linecap:butt;stroke-linejoin:miter;stroke-opacity:1"
       d="m 27,1021.3622 v 30 H 5 v -30 h 22"
       id="path1537"
       inkscape:connector-curvature="0"
       sodipodi:nodetypes="ccccc" />
    <path
       style="fill:#055a00;fill-opacity:1;fill-rule:evenodd;stroke:none;stroke-width:1px;stroke-linecap:butt;stroke-linejoin:miter;stroke-opacity:1"
       d="M 27,1034.3622 H 4.9999999 v 4 H 27 v -4"
       id="path1539"
       inkscape:connector-curvature="0" />
    <path
       style="fill:#fefefe;fill-opacity:1;fill-rule:evenodd;stroke:none;stroke-width:1px;stroke-linecap:butt;stroke-linejoin:miter;stroke-opacity:1"
       d="m 22,1026.3622 -2,1 c -2,-1 -3,-1 -4,-1 -5,0 -8,4 -8,10 0,6 3,10 8,10 1,0 2,0 4,-1 l 2,1 v -7 l -2,3 c -1,1 -2,1 -3,1 -3,0 -5,-3 -5,-7 0,-4 2,-7 5,-7 1,0 2,0 3,1 l 1.999998,2.9998 v -7"
       id="path879"
       inkscape:connector-curvature="0"
       sodipodi:nodetypes="ccccccccccccccc" />
  </g>
  <g
     transform="translate(0,-1020.3622)"
     style="display:none;opacity:1"
     id="g1557"
     inkscape:groupmode="layer"
     inkscape:label="book E">
    <path
       sodipodi:nodetypes="ccccc"
       inkscape:connector-curvature="0"
       id="path1551"
       d="m 27,1021.3622 v 30 H 5 v -30 h 22"
       style="fill:#0095bc;fill-opacity:1;fill-rule:evenodd;stroke:none;stroke-width:1px;stroke-linecap:butt;stroke-linejoin:miter;stroke-opacity:1" />
    <path
       inkscape:connector-curvature="0"
       id="path1553"
       d="M 27,1034.3622 H 4.9999999 v 4 H 27 v -4"
       style="fill:#115d72;fill-opacity:1;fill-rule:evenodd;stroke:none;stroke-width:1px;stroke-linecap:butt;stroke-linejoin:miter;stroke-opacity:1" />
    <path
       style="display:inline;opacity:1;fill:#ffffff;fill-opacity:1;fill-rule:evenodd;stroke:none;stroke-width:1px;stroke-linecap:butt;stroke-linejoin:miter;stroke-opacity:1"
       d="M 24,1026.3622 H 8 l 2,2 v 16 l -2,2 h 16 v -5 l -2,2 h -8 v -5 h 4 l 2,2 v -8 l -2,2 h -4 v -5 h 8 l 2,2 v -5"
       id="path1559"
       inkscape:connector-curvature="0"
       sodipodi:nodetypes="ccccccccccccccccccc" />
  </g>
  <g
     inkscape:label="book template"
     inkscape:groupmode="layer"
     id="g845"
     style="display:inline;opacity:1"
     transform="translate(0,-1020.3622)">
    <path
       style="fill:#8f8f8f;fill-opacity:1;fill-rule:evenodd;stroke:none;stroke-width:1px;stroke-linecap:butt;stroke-linejoin:miter;stroke-opacity:1"
       d="m 27,1021.3622 v 30 H 5 v -30 h 22"
       id="path839"
       inkscape:connector-curvature="0"
       sodipodi:nodetypes="ccccc" />
    <path
       style="fill:#5b5b5b;fill-opacity:1;fill-rule:evenodd;stroke:none;stroke-width:1px;stroke-linecap:butt;stroke-linejoin:miter;stroke-opacity:1"
       d="M 27,1034.3622 H 4.9999999 v 4 H 27 v -4"
       id="path841"
       inkscape:connector-curvature="0" />
  </g>
  <g
     inkscape:groupmode="layer"
     id="layer3"
     inkscape:label="metal"
     style="display:inline">
    <path
       transform="translate(0,-1020.3622)"
       style="fill:#1d1f21;fill-opacity:1;fill-rule:evenodd;stroke:none;stroke-width:1px;stroke-linecap:butt;stroke-linejoin:miter;stroke-opacity:1"
       d="m 28,1020.3622 v 6 h -2 l -4,-4 v -2 h 6 v 0"
       id="path4533"
       inkscape:connector-curvature="0"
       sodipodi:nodetypes="ccccccc" />
    <path
       transform="translate(0,-1020.3622)"
       style="fill:#1d1f21;fill-opacity:1;fill-rule:evenodd;stroke:none;stroke-width:1px;stroke-linecap:butt;stroke-linejoin:miter;stroke-opacity:1"
       d="m 27,1052.3622 h -5 v -2 l 4,-4 h 2 v 6 0"
       id="path4533-5"
       inkscape:connector-curvature="0"
       sodipodi:nodetypes="ccccccc" />
    <path
       transform="translate(0,-1020.3622)"
       style="fill:#1d1f21;fill-opacity:1;fill-rule:evenodd;stroke:none;stroke-width:1px;stroke-linecap:butt;stroke-linejoin:miter;stroke-opacity:1"
       d="m 4,1052.3622 v -6 h 2 l 4,4 v 2 H 4 v 0"
       id="path4533-7"
       inkscape:connector-curvature="0"
       sodipodi:nodetypes="ccccccc" />
    <path
       transform="translate(0,-1020.3622)"
       style="fill:#1d1f21;fill-opacity:1;fill-rule:evenodd;stroke:none;stroke-width:1px;stroke-linecap:butt;stroke-linejoin:miter;stroke-opacity:1"
       d="m 4,1020.3622 h 6 v 2 l -4,4 H 4 v -6 0"
       id="path4533-3"
       inkscape:connector-curvature="0"
       sodipodi:nodetypes="ccccccc" />
    <path
       style="fill:#1d1f21;fill-opacity:1;fill-rule:evenodd;stroke:none;stroke-width:1px;stroke-linecap:butt;stroke-linejoin:miter;stroke-opacity:1"
       d="m 28,12.000068 v 7.999931 c 0,0 -4,0 -4,0 v -7.999931 h 4"
       id="path4564"
       inkscape:connector-curvature="0" />
  </g>
</svg>
